<svg id="Layer_1" height="400" viewBox="0 0 512 512" width="600" xmlns="http://www.w3.org/2000/svg" data-name="Layer 1"><path d="m472 417.64v-246.35c0-17.57-13.895-32.29-31.475-32.29h-368.885c-17.57 0-31.64 14.72-31.64 32.29v246.35l-.035.36h432.07z" fill="#ccd3df"/><path d="m70 171.29c0-17.57 14.07-32.29 31.64-32.29h-30c-17.57 0-31.64 14.72-31.64 32.29v246.35l-.035.36h30l.035-.36z" fill="#acb2bc"/><path d="m101.18 181-19.18 2v236.05-.05h120.59l11.61 18h82.58l11.6-18h121.62v.05-238.05z" fill="#f3ce7d"/><path d="m384.11 37h-256.22a25.655 25.655 0 0 0 -25.89 25.89v151.42c0 14.48 11.4 26.69 25.89 26.69h256.22c14.49 0 25.89-12.21 25.89-26.69v-151.42a25.655 25.655 0 0 0 -25.89-25.89z" fill="#eb7288"/><path d="m232 162h48v21h-48z" fill="#4ca987"/><path d="m332.21 93h-6.21v34h6.21a17.062 17.062 0 0 0 11.97-5.195 16.861 16.861 0 0 0 -11.97-28.805z" fill="#4ca987"/><path d="m305.03 182h-98.06a27.013 27.013 0 0 0 -26.97 26.99v32.01h6.86c19.12 0 27.66 10.125 31.72 21.615s3.66 23.982 4.91 28.472c.17.6.42.752.6.462a16.843 16.843 0 0 0 3.91-1.769l6.458-49.322 49.542.542h48v-32.01a27.013 27.013 0 0 0 -26.97-26.99z" fill="#bad79d"/><path d="m185 93h-5.21a16.786 16.786 0 0 0 -16.93 16.76 17.243 17.243 0 0 0 4.96 12.125 16.989 16.989 0 0 0 11.97 5.115h6.21z" fill="#4ca987"/><path d="m284.14 238.4-.14 2.6h-19.67c-4.65 0-8.52 2.84-9.34 7.42-4.76 26.6-19.95 37.57-27.13 41.36v-51.38a28.14 28.14 0 1 1 56.28 0z" fill="#4ca987"/><path d="m328.45 126.53a53.018 53.018 0 0 1 -48.55 36.48c-.61.03-1.22.04-1.84.04h-44.12c-.62 0-1.24-.01-1.85-.04a52.925 52.925 0 0 1 -51.15-52.96v-.89a52.955 52.955 0 0 1 53-53h44.12a52.937 52.937 0 0 1 53 53v.89a53.145 53.145 0 0 1 -2.61 16.48z" fill="#bad79d"/><path d="m304.11 92.67a23.95 23.95 0 0 1 -16.94 40.88h-62.34a23.945 23.945 0 1 1 0-47.89h62.34a23.916 23.916 0 0 1 16.94 7.01z" fill="#6d7486"/><circle cx="282.01" cy="109.6" fill="#5fa8ed" r="8.04"/><circle cx="229.99" cy="109.6" fill="#5fa8ed" r="8.04"/><path d="m472.12 417.685-163.74-.685-11.6 18h-82.58l-11.61-18-162.71.685a29.155 29.155 0 0 0 -23.88 28.705v.02a28.626 28.626 0 0 0 28.9 28.59h422.2a28.628 28.628 0 0 0 28.9-28.57v-.02a29.167 29.167 0 0 0 -23.88-28.725z" fill="#b0b5ca"/><path d="m46 446.41v-.02c0-14.25 10.31-26.39 23.88-28.39h-30c-13.57 2-23.88 14.14-23.88 28.39v.02a28.626 28.626 0 0 0 28.9 28.59h30a28.626 28.626 0 0 1 -28.9-28.59z" fill="#9095a5"/><path d="m132 214.31v-151.42a25.655 25.655 0 0 1 25.89-25.89h-30a25.655 25.655 0 0 0 -25.89 25.89v151.42c0 14.48 11.4 26.69 25.89 26.69h30c-14.49 0-25.89-12.21-25.89-26.69z" fill="#bf566d"/><g fill="#284268"><path d="m131 75a6 6 0 0 0 6-6v-2a6 6 0 0 0 -12 0v2a6 6 0 0 0 6 6z"/><path d="m131 158a6 6 0 0 0 6-6v-62a6 6 0 0 0 -12 0v62a6 6 0 0 0 6 6z"/><path d="m317.117 110a30.026 30.026 0 0 0 -29.946-30h-62.342a30 30 0 0 0 0 60h62.342a30.026 30.026 0 0 0 29.946-30zm-110.234 0a18.013 18.013 0 0 1 17.946-18h62.342a18 18 0 0 1 0 36h-62.342a18.013 18.013 0 0 1 -17.946-18z"/><path d="m229.992 95.563a14.039 14.039 0 1 0 14.039 14.037 14.055 14.055 0 0 0 -14.039-14.037zm0 16.078a2.039 2.039 0 1 1 2.039-2.039 2.042 2.042 0 0 1 -2.039 2.039z"/><path d="m296.047 109.6a14.039 14.039 0 1 0 -14.039 14.039 14.055 14.055 0 0 0 14.039-14.039zm-14.039 2.039a2.039 2.039 0 1 1 2.039-2.039 2.042 2.042 0 0 1 -2.039 2.041z"/><path d="m478 413.3v-242.006a38.044 38.044 0 0 0 -10.985-26.978 37.6 37.6 0 0 0 -26.661-11.316h-24.354v-70.11a31.689 31.689 0 0 0 -31.885-31.89h-256.23a31.689 31.689 0 0 0 -31.885 31.89v70.11h-24.362c-20.856 0-37.638 17.441-37.638 38.293v242.007a34.71 34.71 0 0 0 10.9 67.7h422.2a34.71 34.71 0 0 0 10.9-67.7zm-62-268.3h24.353a25.671 25.671 0 0 1 18.173 7.8 26.118 26.118 0 0 1 7.474 18.5v239.7h-30v-229.835a5.888 5.888 0 0 0 -5.691-6.165h-14.309zm-308-82.11a19.677 19.677 0 0 1 19.885-19.89h256.23a19.677 19.677 0 0 1 19.885 19.89v151.416c0 11.151-8.734 20.694-19.885 20.694h-46.115v-26.011a33.049 33.049 0 0 0 -32.966-32.989h-19.034v-7.49a59.314 59.314 0 0 0 46.648-35.993 22.958 22.958 0 0 0 -.035-45.908 59.171 59.171 0 0 0 -54.555-36.609h-44.116a59.156 59.156 0 0 0 -54.542 36.609 22.948 22.948 0 0 0 -.046 45.888 59.337 59.337 0 0 0 46.646 36.013v7.49h-19.034a33.049 33.049 0 0 0 -32.966 32.989v26.011h-46.115c-11.151 0-19.885-9.543-19.885-20.694zm148.069 141.61a33.916 33.916 0 0 0 -34.069 33.9v16.523c-6-11.023-15.695-19.923-35.14-19.923h-.86v-26.011a21.035 21.035 0 0 1 20.966-20.989h98.068a21.035 21.035 0 0 1 20.966 20.989v26.011h-36.088a34.326 34.326 0 0 0 -33.843-30.5zm21.723 30.5h-13.323a15.316 15.316 0 0 0 -15.314 12.592c-2.777 15.5-9.155 24.8-15.155 30.495v-39.687a22.039 22.039 0 0 1 43.792-3.4zm-43.792-78a47 47 0 0 1 -47-47v-1a47 47 0 0 1 47-47h44a47 47 0 0 1 47 47v1a47 47 0 0 1 -47 47zm40 12v7h-36v-7zm62.218-69.542a10.9 10.9 0 0 1 -.007 20.287 59.172 59.172 0 0 0 .789-9.7v-.891a59.072 59.072 0 0 0 -.782-9.696zm-160.436 20.287a10.9 10.9 0 0 1 .007-20.287 59.181 59.181 0 0 0 -.789 9.7v.891a59.064 59.064 0 0 0 .782 9.696zm-47.897 127.255h58.975c24.143 0 27.908 18.437 29.7 37.562a49.441 49.441 0 0 0 1.16 8.148 6.282 6.282 0 0 0 5.249 4.905 6.064 6.064 0 0 0 .882.035 6.146 6.146 0 0 0 2.9-.749c4.967-1.9 27.891-12.257 34.151-47.184a3.413 3.413 0 0 1 3.57-2.717h119.643c17.768 0 31.885-14.926 31.885-32.694v-27.306h8v224h-115.616a6.451 6.451 0 0 0 -4.967 3.068l-9.823 14.932h-76.21l-9.823-14.932a6.455 6.455 0 0 0 -4.968-3.068h-114.593v-224h8v27.306c0 17.768 14.117 32.694 31.885 32.694zm-81.885-75.709c0-14.239 11.405-26.291 25.646-26.291h24.354v30h-14.309a5.888 5.888 0 0 0 -5.691 6.165v229.835h-30zm421.1 297.709h-422.195a22.8 22.8 0 0 1 -22.905-22.758 23.19 23.19 0 0 1 22.9-23.242h154.511l9.823 14.932a6.453 6.453 0 0 0 4.966 3.068h82.575a6.451 6.451 0 0 0 4.967-3.068l9.825-14.932h155.533a23 23 0 0 1 0 46z"/><path d="m131.976 392h53.133a6 6 0 1 0 0-12h-53.133a6 6 0 0 0 0 12z"/><path d="m329.761 380h-111.3a6 6 0 1 0 0 12h111.3a6 6 0 0 0 0-12z"/><path d="m380.024 380h-24.292a6 6 0 1 0 0 12h24.292a6 6 0 0 0 0-12z"/><path d="m131.976 357h18.437a6 6 0 0 0 0-12h-18.437a6 6 0 0 0 0 12z"/><path d="m189.617 345h-13.386a6 6 0 0 0 0 12h13.386a6 6 0 0 0 0-12z"/><path d="m209.645 351a6 6 0 0 0 6 6h164.379a6 6 0 0 0 0-12h-164.379a6 6 0 0 0 -6 6z"/><path d="m131.976 316h14.908a6 6 0 1 0 0-12h-14.908a6 6 0 0 0 0 12z"/><path d="m173.052 316h46.367a6 6 0 0 0 0-12h-46.367a6 6 0 0 0 0 12z"/><path d="m245.446 316h134.578a6 6 0 0 0 0-12h-134.578a6 6 0 0 0 0 12z"/></g></svg>