<svg id="Capa_1" enable-background="new 0 0 512 512" height="400" viewBox="0 0 512 512" width="600" xmlns="http://www.w3.org/2000/svg"><g><g><path d="m512 512h-331v-271h180v-64.951l80.303 64.951h70.697z" fill="#ff5959"/></g><path d="m361 176.049v64.951h-15v271h166v-271h-70.697z" fill="#e63a57"/><g><path d="m151 338.954-80.479-67.954h-70.521v-271h331v271h-180z" fill="#ffdf40"/></g><path d="m166 0h165v271h-165z" fill="#ffbe40"/><g id="Translation_1_"><path d="m392.846 443.192 26.309-14.385-73.155-134.047-73.154 134.048 26.309 14.385 12.112-22.193h69.467zm-65.204-52.192 18.358-33.633 18.358 33.633z" fill="#ecf2ff"/><path d="m241 121v-30h-60v-30h-30v30h-60v30h31.516c2.686 18.53 10.15 35.352 21.215 49.444-11.126 6.54-23.914 10.556-37.731 10.556v30c22.332 0 42.962-7.128 60-19.063 17.038 11.935 37.668 19.063 60 19.063v-30c-13.817 0-26.605-4.016-37.731-10.556 11.065-14.092 18.528-30.914 21.215-49.444zm-75 29.542c-6.445-8.657-11.252-18.591-13.484-29.542h26.968c-2.232 10.952-7.039 20.885-13.484 29.542z" fill="#4d5e80"/></g><path d="m181 61h-15v60h13.484c-2.232 10.952-7.039 20.885-13.484 29.542v41.395c17.038 11.935 37.668 19.063 60 19.063v-30c-13.817 0-26.605-4.016-37.731-10.556 11.065-14.092 18.528-30.914 21.215-49.444h31.516v-30h-60z" fill="#3d4566"/><path d="m364.358 391h-18.358v30h34.733l12.113 22.192 26.308-14.384-73.154-134.048v62.607z" fill="#d9e5ff"/></g></svg>